<svg version="1.1" viewBox="0.0 0.0 192.0 192.0" fill="none" stroke="none" stroke-linecap="square" stroke-miterlimit="10" xmlns:xlink="http://www.w3.org/1999/xlink" xmlns="http://www.w3.org/2000/svg"><clipPath id="p.0"><path d="m0 0l192.0 0l0 192.0l-192.0 0l0 -192.0z" clip-rule="nonzero"/></clipPath><g clip-path="url(#p.0)"><path fill="#000000" fill-opacity="0.0" d="m0 0l192.0 0l0 192.0l-192.0 0z" fill-rule="evenodd"/><path fill="#ffc107" d="m6.9291337E-4 0.0023328084l192.0 0l0 192.0l-192.0 0z" fill-rule="evenodd"/><path fill="#212529" d="m70.656944 50.50734l0 69.0q0 10.8125 -6.8125 17.6875q-6.8125 6.875 -20.1875 6.875q-12.312502 0 -19.468752 -6.53125q-7.15625 -6.53125 -7.15625 -22.53125l0 -3.1875l12.1875 0l0 2.8125q0 11.25 3.656252 15.21875q3.65625 3.96875 11.03125 3.96875q7.5 0 11.0625 -3.96875q3.5625 -3.96875 3.5625 -12.03125l0 -67.3125l12.125 0zm59.062492 -2.1875q16.1875 0 26.5625 7.75q10.375 7.75 12.6875 22.5625l-12.125 0q-1.8125 -9.6875 -8.90625 -14.875q-7.09375 -5.1875 -18.28125 -5.1875q-14.624992 0 -22.968742 10.8125q-8.34375 10.8125 -8.34375 27.9375q0 15.6875 8.625 26.09375q8.625 10.40625 22.687492 10.40625q13.125 0 21.25 -7.90625q8.125 -7.90625 8.125 -20.46875l0 -1.4375l-29.25 0l0 -10.25l40.0625 0l0 48.125l-7.625 0l-3.25 -11.375q-4.9375 6.5 -12.65625 10.03125q-7.71875 3.53125 -16.65625 3.53125q-18.687492 0 -31.093742 -13.40625q-12.40625 -13.40625 -12.40625 -32.71875q0 -21.625 11.71875 -35.625q11.71875 -14.0 31.843742 -14.0z" fill-rule="nonzero"/></g></svg>