<?xml version="1.0" encoding="UTF-8" standalone="no"?>
<svg
   xmlns:dc="http://purl.org/dc/elements/1.1/"
   xmlns:cc="http://creativecommons.org/ns#"
   xmlns:rdf="http://www.w3.org/1999/02/22-rdf-syntax-ns#"
   xmlns:svg="http://www.w3.org/2000/svg"
   xmlns="http://www.w3.org/2000/svg"
   version="1.1"
   id="svg28"
   xml:space="preserve"
   width="279.999"
   height="65.624"
   viewBox="0 0 279.999 65.624"><metadata
     id="metadata34"><rdf:RDF><cc:Work
         rdf:about=""><dc:format>image/svg+xml</dc:format><dc:type
           rdf:resource="http://purl.org/dc/dcmitype/StillImage" /><dc:title></dc:title></cc:Work></rdf:RDF></metadata><defs
     id="defs32" /><g
     id="g36"
     transform="matrix(1.3333333,0,0,-1.3333333,0,115.41333)"><g
       id="g38"
       transform="matrix(0.08594809,0,0,0.08594809,-12.742835,24.753614)"><path
         d="m 1092.04,541.379 h 36.46 l 63.29,-161.203 H 1156 l -13.87,36.926 h -65.34 l -14.09,-36.926 h -33.5 z m 17.76,-32.356 h -0.48 l -23.28,-66.507 h 47.09 l -23.33,66.507"
         style="fill:#231f20;fill-opacity:1;fill-rule:nonzero;stroke:none"
         id="path40" /><path
         d="m 1208.62,541.383 h 34.89 c 34.63,0 75.95,1.148 75.95,-43.684 0,-18.918 -12.69,-34.597 -33.24,-37.394 v -0.426 c 8.78,-0.703 13.85,-9.496 17.1,-16.645 l 25.86,-63.078 h -36.04 l -19.38,50.364 c -4.66,11.996 -8.76,16.632 -22.41,16.632 h -10.41 v -66.996 h -32.32 z m 32.32,-68.86 h 10.66 c 15.91,0 34.18,2.34 34.18,22.43 0,19.391 -18.03,21.016 -34.18,21.016 h -10.66 v -43.446"
         style="fill:#231f20;fill-opacity:1;fill-rule:nonzero;stroke:none"
         id="path42" /><path
         d="m 1381.13,515.969 h -46.19 v 25.414 h 124.72 v -25.414 h -46.24 V 380.156 h -32.29 v 135.813"
         style="fill:#231f20;fill-opacity:1;fill-rule:nonzero;stroke:none"
         id="path44" /><path
         d="m 1566.78,511.809 c -10.16,4.394 -21.48,6.941 -32.78,6.941 -11.09,0 -25.42,-4.867 -25.42,-22.418 0,-27.941 70.69,-16.156 70.69,-70.187 0,-35.344 -27.98,-48.762 -60.51,-48.762 -17.55,0 -25.42,2.285 -41.34,6.25 l 2.97,29.101 c 11.13,-6.015 23.81,-9.941 36.51,-9.941 12.24,0 28.63,6.25 28.63,20.793 0,30.719 -70.66,18.016 -70.66,71.371 0,36.039 27.92,49.195 56.36,49.195 13.83,0 26.76,-1.851 38.55,-5.789 l -3,-26.554"
         style="fill:#231f20;fill-opacity:1;fill-rule:nonzero;stroke:none"
         id="path46" /><path
         d="m 1785.48,382.441 c -11.77,-2.753 -24.49,-5.039 -36.73,-5.039 -52.18,0 -88.45,26.094 -88.45,80.629 0,55.157 33.72,86.121 88.45,86.121 10.62,0 24.72,-2.086 36.48,-6.718 l -2.3,-27.246 c -12.24,6.941 -23.31,8.546 -34.87,8.546 -33.26,0 -54.04,-25.394 -54.04,-58.429 0,-32.793 20.3,-57.512 54.73,-57.512 12.72,0 27.68,2.793 35.33,6.699 l 1.4,-27.051"
         style="fill:#231f20;fill-opacity:1;fill-rule:nonzero;stroke:none"
         id="path48" /><path
         d="m 1879.44,544.152 c 50.57,0 79,-34.195 79,-82.918 0,-48.714 -27.98,-83.832 -79,-83.832 -51.71,0 -78.96,34.414 -78.96,83.832 0,49.426 27.69,82.918 78.96,82.918 m 0,-141.359 c 33.01,0 45.29,29.348 45.29,58.441 0,28.418 -13.2,57.5 -45.29,57.5 -32.08,0 -45.25,-29.082 -45.25,-57.5 0,-29.093 12.25,-58.441 45.25,-58.441"
         style="fill:#231f20;fill-opacity:1;fill-rule:nonzero;stroke:none"
         id="path50" /><path
         d="m 1979.88,541.379 h 32.34 v -93.098 c 0,-27.488 8.76,-45.488 33.5,-45.488 24.68,0 33.49,18 33.49,45.488 v 93.098 h 32.31 V 438.352 c 0,-43.176 -24.48,-60.969 -65.8,-60.969 -41.34,0 -65.84,17.793 -65.84,60.969 v 103.027"
         style="fill:#231f20;fill-opacity:1;fill-rule:nonzero;stroke:none"
         id="path52" /><path
         d="m 2135.76,541.379 h 39.71 l 61.41,-120.586 h 0.48 v 120.586 h 30.95 V 380.176 h -39.49 l -61.64,120.558 h -0.47 V 380.176 h -30.95 v 161.203"
         style="fill:#231f20;fill-opacity:1;fill-rule:nonzero;stroke:none"
         id="path54" /><path
         d="m 2414.46,382.441 c -11.75,-2.753 -24.47,-5.039 -36.7,-5.039 -52.2,0 -88.46,26.094 -88.46,80.629 0,55.157 33.72,86.121 88.46,86.121 10.61,0 24.69,-2.086 36.45,-6.718 l -2.27,-27.246 c -12.26,6.941 -23.32,8.546 -34.86,8.546 -33.25,0 -54.06,-25.394 -54.06,-58.429 0,-32.793 20.3,-57.512 54.74,-57.512 12.68,0 27.7,2.793 35.32,6.699 l 1.38,-27.051"
         style="fill:#231f20;fill-opacity:1;fill-rule:nonzero;stroke:none"
         id="path56" /><path
         d="m 2438.96,541.379 h 32.32 V 380.176 h -32.32 v 161.203"
         style="fill:#231f20;fill-opacity:1;fill-rule:nonzero;stroke:none"
         id="path58" /><path
         d="m 2496.67,541.379 h 32.32 V 405.586 h 62.6 v -25.41 h -94.92 v 161.203"
         style="fill:#231f20;fill-opacity:1;fill-rule:nonzero;stroke:none"
         id="path60" /><path
         d="m 1029.68,310.43 h 95.16 V 285.059 H 1062 v -39.746 h 57.52 V 219.902 H 1062 v -45.254 h 63.29 v -25.41 h -95.61 V 310.43"
         style="fill:#231f20;fill-opacity:1;fill-rule:nonzero;stroke:none"
         id="path62" /><path
         d="m 1151.82,310.43 h 39.75 l 61.41,-120.528 h 0.46 V 310.43 h 30.95 V 149.238 h -39.47 l -61.69,120.547 h -0.45 V 149.238 h -30.96 V 310.43"
         style="fill:#231f20;fill-opacity:1;fill-rule:nonzero;stroke:none"
         id="path64" /><path
         d="m 1440.26,279.258 c -12.47,5.781 -28.65,8.535 -41.62,8.535 -37.62,0 -58.37,-25.391 -58.37,-58.418 0,-32.773 20.3,-57.48 54.71,-57.48 8.81,0 15.71,0.918 21.25,2.285 v 42.031 h -34.19 v 25.41 h 65.11 v -86.836 c -17.07,-4.609 -34.86,-8.32 -52.17,-8.32 -52.18,0 -88.44,26.113 -88.44,80.605 0,55.196 33.73,86.133 88.44,86.133 18.71,0 33.48,-2.519 47.36,-6.699 l -2.08,-27.246"
         style="fill:#231f20;fill-opacity:1;fill-rule:nonzero;stroke:none"
         id="path66" /><path
         d="m 1473.02,310.43 h 32.34 V 174.648 h 62.57 v -25.41 h -94.91 V 310.43"
         style="fill:#231f20;fill-opacity:1;fill-rule:nonzero;stroke:none"
         id="path68" /><path
         d="m 1645.05,310.43 h 36.5 l 63.29,-161.211 h -35.79 l -13.88,36.953 h -65.34 l -14.07,-36.953 h -33.51 z m 17.79,-32.305 h -0.43 l -23.36,-66.523 h 47.12 l -23.33,66.523"
         style="fill:#231f20;fill-opacity:1;fill-rule:nonzero;stroke:none"
         id="path70" /><path
         d="m 1760.51,310.43 h 39.72 l 61.44,-120.528 h 0.44 V 310.43 h 30.96 V 149.238 h -39.49 l -61.68,120.547 h -0.45 V 149.238 h -30.94 V 310.43"
         style="fill:#231f20;fill-opacity:1;fill-rule:nonzero;stroke:none"
         id="path72" /><path
         d="m 1919.46,310.43 h 44.11 c 49.39,0 93.06,-16.641 93.06,-80.606 0,-63.926 -43.67,-80.586 -93.06,-80.586 h -44.11 z m 32.33,-135.782 h 18.01 c 27,0 53.12,20.079 53.12,55.176 0,35.137 -26.12,55.215 -53.12,55.215 h -18.01 V 174.648"
         style="fill:#231f20;fill-opacity:1;fill-rule:nonzero;stroke:none"
         id="path74" /><path
         d="m 1031.31,635.27 c 3.75,-1.622 9.13,-3.047 16.04,-3.047 10.98,0 23.26,5.683 23.26,20.007 0,20.723 -32.51,20.833 -32.51,35.051 0,9.145 8.04,12.192 15.36,12.192 4.77,0 9.75,-0.91 12.89,-2.637 l 1.12,6.391 c -4.86,1.824 -10.46,2.332 -13.92,2.332 -12.49,0 -22.43,-7.102 -22.43,-18.477 0,-18.59 32.5,-20.324 32.5,-34.242 0,-10.067 -7.22,-14.527 -15.96,-14.527 -6.6,0 -11.48,1.515 -15.64,4.164 z m 93.96,49.968 h -6.4 v -28.64 c 0,-8.645 -3.65,-18.891 -15.34,-18.891 -8.84,0 -12.3,6.289 -12.3,16.043 v 31.488 h -6.38 v -33.113 c 0,-11.379 4.86,-19.902 17.66,-19.902 10.78,0 14.64,5.777 16.77,10.453 h 0.21 v -9.227 h 6.18 c -0.4,4.164 -0.4,8.223 -0.4,12.184 z m 16.82,-73.129 h 6.39 v 30.157 h 0.2 c 3.16,-6.688 8.03,-10.043 16.16,-10.043 14.23,0 21.32,11.773 21.32,27.121 0,15.746 -6.07,27.113 -21.32,27.113 -10.98,0 -14.94,-7.805 -16.56,-10.648 h -0.21 l 0.41,9.429 h -6.39 z m 37.08,47.235 c 0,-10.055 -3.15,-21.637 -15.34,-21.637 -11.39,0 -15.35,12.191 -15.35,21.637 0,9.453 3.96,21.644 15.35,21.644 12.19,0 15.34,-11.582 15.34,-21.644 m 21.24,-47.235 h 6.38 v 30.157 h 0.21 c 3.15,-6.688 8.02,-10.043 16.16,-10.043 14.23,0 21.33,11.773 21.33,27.121 0,15.746 -6.09,27.113 -21.33,27.113 -10.98,0 -14.94,-7.805 -16.56,-10.648 h -0.2 l 0.39,9.429 h -6.38 z m 37.08,47.235 c 0,-10.055 -3.15,-21.637 -15.35,-21.637 -11.38,0 -15.35,12.191 -15.35,21.637 0,9.453 3.97,21.644 15.35,21.644 12.2,0 15.35,-11.582 15.35,-21.644 m 18.27,0 c 0,-14.121 7.4,-27.121 24.18,-27.121 16.76,0 24.17,13 24.17,27.121 0,14.129 -7.41,27.113 -24.17,27.113 -16.78,0 -24.18,-12.984 -24.18,-27.113 m 7,0 c 0,11.992 6,21.644 17.18,21.644 11.17,0 17.17,-9.652 17.17,-21.644 0,-11.992 -6,-21.637 -17.17,-21.637 -11.18,0 -17.18,9.645 -17.18,21.637 m 55.17,-25.895 h 6.39 v 25.594 c 0,9.348 2.74,20.723 12.9,20.723 1.63,0 3.35,-0.2 4.67,-0.61 v 6.696 c -1.11,0.304 -2.94,0.605 -4.46,0.605 -6.62,0 -10.98,-5.371 -13.32,-11.156 h -0.19 v 9.937 h -6.4 c 0.41,-3.742 0.41,-5.871 0.41,-11.566 z m 60.49,51.789 h -11.78 v 14.731 l -6.4,-2.235 v -12.496 h -10.15 v -5.472 h 10.15 v -30.278 c 0,-9.449 0.41,-17.265 11.78,-17.265 3.15,0 6.3,0.816 7.82,1.425 l -0.4,5.27 c -1.83,-0.707 -3.45,-1.211 -5.9,-1.211 -5.18,0 -6.9,3.856 -6.9,8.527 v 33.532 h 11.78 z m 47.06,-43.675 c -3.04,-1.926 -9.85,-3.856 -14.52,-3.856 -11.19,0 -17.07,8.836 -17.07,19.816 h 35.44 v 3.239 c 0,13.922 -5.99,25.695 -20.61,25.695 -13.11,0 -21.84,-11.266 -21.84,-27.113 0,-15.543 6.39,-27.121 23.57,-27.121 4.77,0 10.56,1.015 15.03,2.847 z m -31.59,21.425 c 0,8.539 5.78,18 15.24,18 9.54,0 13.2,-8.945 13.2,-18 z m 90.65,46.637 h -6.4 v -33.113 h -0.19 c -0.92,2.547 -6,9.945 -16.16,9.945 -15.25,0 -21.33,-11.367 -21.33,-27.113 0,-15.348 7.1,-27.121 21.33,-27.121 7.41,0 12.7,2.847 16.16,9.437 h 0.19 v -8.211 h 6.4 z m -37.08,-50.281 c 0,10.062 3.15,21.644 15.34,21.644 11.38,0 15.34,-12.191 15.34,-21.644 0,-9.446 -3.96,-21.637 -15.34,-21.637 -12.19,0 -15.34,11.582 -15.34,21.637 m 112.72,25.894 h -6.4 v -28.64 c 0,-8.645 -3.66,-18.891 -15.34,-18.891 -8.84,0 -12.3,6.289 -12.3,16.043 v 31.488 h -6.38 v -33.113 c 0,-11.379 4.86,-19.902 17.67,-19.902 10.76,0 14.62,5.777 16.76,10.453 h 0.2 v -9.227 h 6.19 c -0.4,4.164 -0.4,8.223 -0.4,12.184 z m 12.59,-50.578 c 4.56,-1.832 9.54,-2.437 14.52,-2.437 7.83,0 18.08,3.754 18.08,14.715 0,16.972 -25.5,15.757 -25.5,25.406 0,6.617 4.58,8.644 11.18,8.644 3.56,0 8.13,-0.918 11.47,-2.437 l 0.61,5.582 c -4.55,1.719 -10.04,2.324 -12.79,2.324 -8.54,0 -16.86,-3.848 -16.86,-14.113 0,-15.028 24.89,-13.102 24.89,-25.406 0,-5.883 -5.39,-9.231 -11.49,-9.231 -4.98,0 -9.65,1.309 -13.5,3.25 z m 45.31,-1.211 h 6.38 v 51.789 h -6.38 z m 6.38,74.137 h -6.38 v -8.523 h 6.38 z m 17.12,-74.137 h 6.38 v 28.649 c 0,8.625 3.67,18.89 15.36,18.89 8.84,0 12.29,-6.297 12.29,-16.05 v -31.489 h 6.39 v 33.11 c 0,11.379 -4.87,19.898 -17.67,19.898 -10.78,0 -14.63,-5.777 -16.78,-10.449 h -0.19 v 9.23 h -6.18 c 0.4,-4.164 0.4,-8.226 0.4,-12.183 z m 61.71,25.895 c 0,10.062 3.16,21.644 15.34,21.644 11.7,0 15.35,-9.144 15.35,-21.644 0,-9.446 -4.16,-20.426 -15.75,-20.426 -10.87,0 -14.94,10.258 -14.94,20.426 m 37.08,25.894 h -6.39 v -5.883 h -0.2 c -4.78,6.2 -9.25,7.102 -16.16,7.102 -15.25,0 -21.33,-11.367 -21.33,-27.113 0,-11.489 5.28,-25.895 21.84,-25.895 6.61,0 12.29,2.637 15.75,10.141 h 0.2 c 0,-14.613 -1.42,-26.617 -17.88,-26.617 -5.59,0 -11.28,1.632 -15.25,3.672 l -0.5,-6.407 c 2.65,-0.804 8.83,-2.738 15.64,-2.738 17.79,0 24.28,11.777 24.28,26.207 z m 34.62,-73.129 h 6.37 v 30.157 h 0.21 c 3.16,-6.688 8.03,-10.043 16.16,-10.043 14.23,0 21.32,11.773 21.32,27.121 0,15.746 -6.08,27.113 -21.32,27.113 -10.98,0 -14.95,-7.805 -16.57,-10.648 h -0.2 l 0.4,9.429 h -6.37 z m 37.07,47.235 c 0,-10.055 -3.15,-21.637 -15.35,-21.637 -11.38,0 -15.35,12.191 -15.35,21.637 0,9.453 3.97,21.644 15.35,21.644 12.2,0 15.35,-11.582 15.35,-21.644 m 61.85,25.894 h -6.39 v -28.64 c 0,-8.645 -3.65,-18.891 -15.34,-18.891 -8.85,0 -12.3,6.289 -12.3,16.043 v 31.488 h -6.39 v -33.113 c 0,-11.379 4.87,-19.902 17.67,-19.902 10.77,0 14.63,5.777 16.77,10.453 h 0.2 v -9.227 h 6.19 c -0.41,4.164 -0.41,8.223 -0.41,12.184 z m 16.82,-51.789 h 6.39 v 8.211 h 0.2 c 3.47,-6.59 8.74,-9.437 16.16,-9.437 14.23,0 21.33,11.773 21.33,27.121 0,15.746 -6.09,27.113 -21.33,27.113 -10.17,0 -15.24,-7.398 -16.16,-9.945 h -0.2 v 33.113 h -6.39 z m 37.07,25.895 c 0,-10.055 -3.14,-21.637 -15.34,-21.637 -11.38,0 -15.34,12.191 -15.34,21.637 0,9.453 3.67,21.644 15.34,21.644 12.2,0 15.34,-11.582 15.34,-21.644 m 21.65,-25.895 h 6.4 v 76.176 h -6.4 z m 23.49,0 h 6.38 v 51.789 h -6.38 z m 6.39,74.137 h -6.39 v -8.523 h 6.39 z m 51.99,-23.148 c -1.84,0.609 -6.3,2.019 -12.51,2.019 -15.32,0 -25.58,-11.156 -25.58,-27.113 0,-14.43 8.11,-27.121 24.78,-27.121 4.86,0 8.93,0.312 13.31,1.832 l -0.62,5.984 c -3.85,-1.422 -7.62,-2.332 -11.68,-2.332 -11.69,0 -18.8,9.848 -18.8,21.637 0,12.594 7.02,21.644 19.5,21.644 3.46,0 7.63,-1.113 11.08,-2.648 z m 35.01,-50.989 h 6.38 v 46.317 h 11.68 v 5.472 h -11.68 v 4.481 c 0,6.195 -0.91,15.652 7.84,15.652 1.82,0 3.75,-0.41 5.07,-1.129 l 0.41,5.582 c -1.24,0.719 -3.97,1.012 -6,1.012 -13.3,0 -13.7,-10.957 -13.7,-21.832 v -3.766 h -10.47 v -5.472 h 10.47 z m 70.79,51.789 h -6.4 v -28.64 c 0,-8.645 -3.64,-18.891 -15.34,-18.891 -8.84,0 -12.28,6.289 -12.28,16.043 v 31.488 h -6.4 v -33.113 c 0,-11.379 4.87,-19.902 17.67,-19.902 10.78,0 14.63,5.777 16.76,10.453 h 0.21 v -9.227 h 6.19 c -0.41,4.164 -0.41,8.223 -0.41,12.184 z m 17.21,-51.789 h 6.38 v 28.649 c 0,8.625 3.66,18.89 15.35,18.89 8.84,0 12.29,-6.297 12.29,-16.05 v -31.489 h 6.4 v 33.11 c 0,11.379 -4.88,19.898 -17.67,19.898 -10.77,0 -14.64,-5.777 -16.77,-10.449 h -0.2 v 9.23 h -6.19 c 0.41,-4.164 0.41,-8.226 0.41,-12.183 z m 98.92,76.176 h -6.37 v -33.113 h -0.21 c -0.92,2.547 -6,9.945 -16.16,9.945 -15.25,0 -21.32,-11.367 -21.32,-27.113 0,-15.348 7.1,-27.121 21.32,-27.121 7.42,0 12.7,2.847 16.16,9.437 h 0.21 v -8.211 h 6.37 z m -37.07,-50.281 c 0,10.062 3.15,21.644 15.34,21.644 11.38,0 15.36,-12.191 15.36,-21.644 0,-9.446 -3.98,-21.637 -15.36,-21.637 -12.19,0 -15.34,11.582 -15.34,21.637 m 53.85,-25.895 h 6.38 v 51.789 h -6.38 z m 6.39,74.137 h -6.39 v -8.523 h 6.39 z m 17.11,-74.137 h 6.4 v 28.649 c 0,8.625 3.64,18.89 15.34,18.89 8.83,0 12.31,-6.297 12.31,-16.05 v -31.489 h 6.37 v 33.11 c 0,11.379 -4.86,19.898 -17.66,19.898 -10.78,0 -14.64,-5.777 -16.77,-10.449 h -0.2 v 9.23 h -6.19 c 0.4,-4.164 0.4,-8.226 0.4,-12.183 z m 61.71,25.895 c 0,10.062 3.17,21.644 15.36,21.644 11.68,0 15.33,-9.144 15.33,-21.644 0,-9.446 -4.16,-20.426 -15.74,-20.426 -10.88,0 -14.95,10.258 -14.95,20.426 m 37.07,25.894 h -6.38 v -5.883 h -0.2 c -4.78,6.2 -9.26,7.102 -16.17,7.102 -15.21,0 -21.31,-11.367 -21.31,-27.113 0,-11.489 5.28,-25.895 21.82,-25.895 6.6,0 12.3,2.637 15.76,10.141 h 0.2 c 0,-14.613 -1.43,-26.617 -17.88,-26.617 -5.6,0 -11.27,1.632 -15.23,3.672 l -0.51,-6.407 c 2.64,-0.804 8.85,-2.738 15.65,-2.738 17.77,0 24.25,11.777 24.25,26.207 z m 34.61,-51.789 h 6.39 v 8.211 h 0.22 c 3.45,-6.59 8.73,-9.437 16.15,-9.437 14.24,0 21.33,11.773 21.33,27.121 0,15.746 -6.1,27.113 -21.33,27.113 -10.16,0 -15.26,-7.398 -16.15,-9.945 h -0.22 v 33.113 h -6.39 z m 37.09,25.895 c 0,-10.055 -3.14,-21.637 -15.35,-21.637 -11.38,0 -15.35,12.191 -15.35,21.637 0,9.453 3.67,21.644 15.35,21.644 12.21,0 15.35,-11.582 15.35,-21.644 m 20.84,25.894 h -7.01 l 18.36,-52.414 -1.31,-4.578 c -2.03,-6.695 -3.85,-11.273 -9.35,-11.273 -2.33,0 -3.56,0.41 -4.75,0.816 l -0.62,-5.473 c 2.12,-0.503 4.57,-0.816 6.91,-0.816 7.21,0 10.86,7.105 13.3,14.215 l 20.7,59.523 h -6.7 l -14.92,-43.168 h -0.09 l -14.52,43.168"
         style="fill:#231f20;fill-opacity:1;fill-rule:nonzero;stroke:none"
         id="path76" /><path
         d="m 192.262,428.547 0.547,-16.516 -30.321,7.746 -0.043,0.164 z m 28.047,8.715 -0.602,17.347 -71.445,-25.632 0.718,-18.75 73.04,-21.524 -0.61,16.414 -16.265,4.524 -0.825,22.535 15.989,5.086"
         style="fill:#231f20;fill-opacity:1;fill-rule:nonzero;stroke:none"
         id="path78" /><path
         d="m 171.453,508.645 1.606,4.96 c 2.796,8.614 8.914,7.625 11.754,6.723 4.96,-1.566 8.058,-6.187 6.07,-12.402 l -1.711,-4.988 z m 52.11,-34.094 5.242,16.191 -27.774,9.004 c 1.879,5.902 2.602,8.055 12.856,7.672 l 20.144,-0.637 5.473,16.938 -24.719,0.179 c -9.082,0.075 -12.426,-0.996 -14.656,-5.757 l -0.211,0.043 c 1.664,14.152 -9.559,18.179 -12.406,19.132 -12.731,4.106 -20.774,-3.882 -24.461,-15.265 l -8.266,-25.121 68.778,-22.379"
         style="fill:#231f20;fill-opacity:1;fill-rule:nonzero;stroke:none"
         id="path80" /><path
         d="m 253.535,545.859 9.77,13.903 -48.496,33.984 8.98,12.82 -10.687,7.473 -27.813,-39.652 10.688,-7.489 9.05,12.915 48.508,-33.954"
         style="fill:#231f20;fill-opacity:1;fill-rule:nonzero;stroke:none"
         id="path82" /><path
         d="m 267.566,663.316 c -5.613,-2.988 -9.57,-4.75 -14.597,-9.027 -18.535,-15.531 -7.387,-30.211 -5.918,-31.867 16.519,-19.82 33.945,3.746 42.965,-6.918 3.773,-4.524 1.543,-9.945 -2.582,-13.395 -4.868,-4.117 -9.813,-5.05 -15.051,-6.769 l 8.359,-11.418 c 2.973,1.289 10.164,4.59 16.863,10.234 11.051,9.27 14.055,22.574 5.227,33.063 -16.477,19.652 -34.348,-3.332 -42.848,6.754 -3.425,4.113 -1.882,8.703 2.356,12.199 3.476,2.961 8.93,5.332 13.305,6.348 l -8.079,10.796"
         style="fill:#231f20;fill-opacity:1;fill-rule:nonzero;stroke:none"
         id="path84" /><path
         d="m 398.355,715.012 c -2.96,0.535 -8.808,1.609 -19.328,-0.86 -14.304,-3.32 -29.3,-17.574 -23.308,-43.39 5.172,-22.328 21.996,-33.614 41.277,-29.164 8.977,2.09 14.434,5.062 17.027,6.605 l -4.011,14.613 c -1.438,-1.113 -5.465,-5.242 -13.532,-7.089 -10.511,-2.446 -20.601,5.031 -23.769,18.722 -3.332,14.192 1.687,24.864 12.703,27.422 7.613,1.754 12.508,0.078 15.356,-0.719 l -2.415,13.86"
         style="fill:#231f20;fill-opacity:1;fill-rule:nonzero;stroke:none"
         id="path86" /><path
         d="m 453.711,682.594 c 1.75,13.734 6.519,24.554 16.23,23.379 9.793,-1.215 11.907,-12.828 10.215,-26.586 -1.711,-13.778 -6.578,-24.574 -16.301,-23.348 -9.777,1.176 -11.812,12.789 -10.144,26.555 m -17.266,2.16 c -2.562,-21.098 5.239,-38.316 25.899,-40.856 20.644,-2.558 32.457,12.231 35.054,33.329 2.614,21.089 -5.257,38.343 -25.98,40.832 -20.621,2.617 -32.363,-12.223 -34.973,-33.305"
         style="fill:#231f20;fill-opacity:1;fill-rule:nonzero;stroke:none"
         id="path88" /><path
         d="m 521.578,659.492 c -8.086,-15.937 -3.281,-29.051 11.172,-36.476 14.551,-7.352 27.973,-3.567 36.082,12.422 l 20.938,41.035 -15.086,7.715 -22.258,-43.415 c -3.238,-6.492 -7.641,-9.222 -13.676,-6.132 -6.129,3.113 -6.516,8.308 -3.184,14.797 l 22.075,43.429 -15.028,7.699 -21.035,-41.074"
         style="fill:#231f20;fill-opacity:1;fill-rule:nonzero;stroke:none"
         id="path90" /><path
         d="m 574.172,600.387 10.269,-10.727 37.75,36.297 0.145,-0.16 -23.231,-51.231 14.004,-14.449 51.965,50.168 -10.457,10.762 -35.941,-34.84 -0.145,0.16 21.379,49.903 -13.722,14.363 -52.016,-50.246"
         style="fill:#231f20;fill-opacity:1;fill-rule:nonzero;stroke:none"
         id="path92" /><path
         d="m 707.727,529.824 c -0.168,3.071 -0.418,9.055 -5.211,18.711 -6.446,13.219 -23.743,24.606 -47.578,12.969 -20.602,-10.008 -27.774,-28.934 -19.161,-46.75 4.071,-8.27 8.207,-12.961 10.332,-15.149 l 13.246,7.165 c -1.363,1.132 -6.203,4.179 -9.812,11.683 -4.762,9.617 0.223,21.211 12.766,27.383 13.16,6.402 24.629,3.828 29.629,-6.348 3.433,-6.965 2.906,-12.09 2.714,-15.058 l 13.075,5.394"
         style="fill:#231f20;fill-opacity:1;fill-rule:nonzero;stroke:none"
         id="path94" /><path
         d="m 649.551,475.152 2.965,-16.683 71.097,12.508 -2.929,16.644 -71.133,-12.469"
         style="fill:#231f20;fill-opacity:1;fill-rule:nonzero;stroke:none"
         id="path96" /><path
         d="m 654.531,432.363 -2.789,-40.73 13.047,-1.008 1.637,23.84 59.078,-4.133 1.184,17.102 -72.157,4.929"
         style="fill:#231f20;fill-opacity:1;fill-rule:nonzero;stroke:none"
         id="path98" /><path
         d="m 213.004,263.664 20.449,-24.289 4.574,4.016 -16.332,19.226 21.914,18.438 14.864,-17.832 4.558,3.984 -14.832,17.805 19.711,16.59 15.551,-18.711 4.625,3.957 -19.711,23.457 -55.371,-46.641"
         style="fill:#231f20;fill-opacity:1;fill-rule:nonzero;stroke:none"
         id="path100" /><path
         d="m 264.34,209.973 4.984,-3.262 35.649,52.969 0.172,-0.117 -10.477,-69.864 6.836,-4.765 40.406,60.058 -4.984,3.281 -35.93,-53.371 -0.172,0.118 10.762,70.246 -6.844,4.765 -40.402,-60.058"
         style="fill:#231f20;fill-opacity:1;fill-rule:nonzero;stroke:none"
         id="path102" /><path
         d="m 376.234,191.359 12.411,-3.586 -6.93,-24.363 c -3.629,-0.762 -6.582,-0.324 -10.16,0.574 -18.348,5.118 -19.27,23.965 -15.625,36.653 6.316,21.875 21.8,25.742 31.691,22.801 5.309,-1.543 11.309,-5.497 13.363,-8.465 l 2.301,6.629 c -1.769,1.718 -8.055,5.996 -13.672,7.656 -19.457,5.519 -34.949,-8.348 -40.066,-26.094 -3.762,-13.23 -4.367,-37.898 19.996,-44.91 5.738,-1.652 11.34,-2.18 17.141,-0.813 l 9.796,34.348 -18.593,5.215 -1.653,-5.645"
         style="fill:#231f20;fill-opacity:1;fill-rule:nonzero;stroke:none"
         id="path104" /><path
         d="m 428.691,150.84 h 29.926 l -0.012,5.91 h -23.511 v 66.277 h -6.403 V 150.84"
         style="fill:#231f20;fill-opacity:1;fill-rule:nonzero;stroke:none"
         id="path106" /><path
         d="m 496.184,224.484 0.183,0.028 22.731,-34.434 -24.008,-7.129 z m -8.172,-70.5 6.113,1.797 0.801,21.125 27.726,7.762 11.532,-17.391 6.543,1.856 -43.032,63.055 -6.543,-1.942 -3.14,-76.262"
         style="fill:#231f20;fill-opacity:1;fill-rule:nonzero;stroke:none"
         id="path108" /><path
         d="m 571.617,184.668 5.028,3.398 -34.668,53.489 0.164,0.086 60.218,-36.903 6.899,4.278 -39.336,60.839 -5.082,-3.429 34.949,-53.836 -0.215,-0.09 -60.277,37.285 -7,-4.305 39.32,-60.812"
         style="fill:#231f20;fill-opacity:1;fill-rule:nonzero;stroke:none"
         id="path110" /><path
         d="m 596.898,288.879 3.352,4.129 c 14.832,19.269 30.801,9.18 39.773,1.992 14.239,-11.094 18.239,-25.437 8.36,-38.086 l -4.086,-5.351 z m 48.215,-45.871 6.899,8.644 c 14.277,18.496 7.875,36.59 -8.688,49.539 -18.367,14.407 -34.597,12.657 -49.347,-6.336 l -5.872,-7.343 57.008,-44.504"
         style="fill:#231f20;fill-opacity:1;fill-rule:nonzero;stroke:none"
         id="path112" /><path
         d="m 881.684,149.238 h -7.481 v 569.875 h 7.481 V 149.238"
         style="fill:#231f20;fill-opacity:1;fill-rule:nonzero;stroke:none"
         id="path114" /></g></g></svg>
